# xmcd CD database file
#
# Track frame offsets:
#	150
#	11970
#	21835
#	31815
#	40827
#	56090
#	68735
#	80405
#	91552
#	102165
#	112960
#	127667
#	141415
#	151580
#	157432
#	166772
#
# Disc length: 2344 seconds
#
# Revision: 0
# Processed by: cddbd v1.5.1PL0 Copyright (c) Steve Scherf et al.
# Submitted via: CDex 1.51
#
DISCID=bf092610
DTITLE=Various Artist - ボサノバを聞きたくて/カーニバルの朝の光の中で
DYEAR=1993
DGENRE=Jazz
TTITLE0=カーニバルの朝（ジョアン・ジルベルト）
TTITLE1=おいしい水（ワンダ・ジ・サー）
TTITLE2=オルフェのサンバ（ルイス・ボンファ）
TTITLE3=デサフィナード（ジョアン・ジルベルト）
TTITLE4=ビリンバウ（ワンダ・ジ・サー with セルジオ・メンデス）
TTITLE5=ワン・ノート・サンバ（ジョージ・シアリング）
TTITLE6=イパネマの娘（ロベルト・メネスカル）
TTITLE7=みずがめ座（セルジオ・メンデス）
TTITLE8=南国のリズム（リリオ・パニカリ）
TTITLE9=マリア・ニンゲン（ジョアン・ジルベルト）
TTITLE10=ボンファに抱擁を（バド・シャンク）
TTITLE11=祈り（ワンダ・ジ・サー with セルジオ・メンデス）
TTITLE12=マシュ・ケ・ナダ（ローリンド・アルメイダ）
TTITLE13=ビン・ボン（ジョアン・ジルベルト）
TTITLE14=私の悲しみ（セルジオ・メンデス）
TTITLE15=カーニバルの朝（ルイス・ボンファ）
EXTD=YEAR: 1993
EXTT0=
EXTT1=
EXTT2=
EXTT3=
EXTT4=
EXTT5=
EXTT6=
EXTT7=
EXTT8=
EXTT9=
EXTT10=
EXTT11=
EXTT12=
EXTT13=
EXTT14=
EXTT15=
PLAYORDER=
